<svg xmlns="http://www.w3.org/2000/svg" width="210" height="44" viewBox="0 0 210 44"><path fill="#91A5C2" d="M8.362 42.89V29.024L0 1.05h6.918l4.993 19.067h.12L17.024 1.05h6.317l-8.362 27.973v13.868H8.362zM31.16 10.674v22.594c0 2.989 1.323 4.125 3.429 4.125 2.105 0 3.429-1.136 3.429-4.125V10.673c0-2.989-1.324-4.124-3.43-4.124-2.105 0-3.428 1.135-3.428 4.124zM24.543 32.85V11.09c0-6.694 3.549-10.52 10.046-10.52s10.046 3.826 10.046 10.52v21.76c0 6.694-3.55 10.52-10.046 10.52-6.497 0-10.046-3.826-10.046-10.52zm24.062-31.8h6.617v32.278c0 2.989 1.324 4.065 3.43 4.065 2.105 0 3.428-1.076 3.428-4.065V1.05h6.256v31.859c0 6.694-3.368 10.52-9.865 10.52s-9.866-3.826-9.866-10.52V1.049zm44.816 41.842h-6.737c-.36-1.076-.602-1.734-.602-5.14v-6.576c0-3.885-1.323-5.32-4.33-5.32h-2.287v17.036H72.85V1.05h9.986c6.858 0 9.805 3.168 9.805 9.623v3.288c0 4.303-1.383 7.053-4.33 8.428v.12c3.308 1.374 4.39 4.482 4.39 8.845v6.456c0 2.032.06 3.527.722 5.08zM82.655 7.027h-3.189v12.851h2.587c2.466 0 3.97-1.076 3.97-4.423V11.33c0-2.99-1.022-4.304-3.368-4.304zM96.19 11.09c0-6.694 3.308-10.52 9.745-10.52 6.437 0 9.745 3.826 9.745 10.52v1.315h-6.256v-1.733c0-2.989-1.203-4.124-3.309-4.124-2.105 0-3.308 1.135-3.308 4.124 0 3.048 1.323 5.32 5.655 9.086 5.534 4.841 7.278 8.308 7.278 13.09 0 6.694-3.368 10.52-9.865 10.52s-9.866-3.826-9.866-10.52v-2.57h6.256v2.988c0 2.989 1.324 4.065 3.43 4.065 2.105 0 3.428-1.076 3.428-4.065 0-3.048-1.323-5.32-5.654-9.085-5.535-4.842-7.28-8.309-7.28-13.09zm21.415-4.064V1.05h20.453v5.977h-6.918V42.89h-6.617V7.027h-6.918zm29.417 3.646v22.594c0 2.989 1.323 4.125 3.428 4.125 2.106 0 3.43-1.136 3.43-4.125V10.673c0-2.989-1.324-4.124-3.43-4.124-2.105 0-3.428 1.135-3.428 4.124zm-6.618 22.176V11.09c0-6.694 3.55-10.52 10.046-10.52 6.497 0 10.047 3.826 10.047 10.52v21.76c0 6.694-3.55 10.52-10.047 10.52-6.496 0-10.046-3.826-10.046-10.52zm44.937 10.042h-6.737c-.361-1.076-.602-1.734-.602-5.14v-6.576c0-3.885-1.323-5.32-4.331-5.32h-2.286V42.89h-6.617V1.05h9.986c6.857 0 9.805 3.168 9.805 9.623v3.288c0 4.303-1.384 7.053-4.331 8.428v.12c3.308 1.374 4.391 4.482 4.391 8.845v6.456c0 2.032.06 3.527.722 5.08zM174.573 7.027h-3.188v12.851h2.587c2.466 0 3.97-1.076 3.97-4.423V11.33c0-2.99-1.023-4.304-3.369-4.304zm19.972 35.864V29.023L186.183 1.05h6.918l4.993 19.067h.12l4.993-19.067h6.317l-8.362 27.973v13.868h-6.617z"/></svg>